HIERARCHY
ROOT Hips
{
  OFFSET 0.000000 0.000000 0.000000
  CHANNELS 6 Xposition Yposition Zposition Zrotation Xrotation Yrotation
  JOINT Spine
  {
    OFFSET 0.000000 12.000000 0.000000
    CHANNELS 3 Zrotation Xrotation Yrotation
    JOINT Spine1
    {
      OFFSET 0.000000 15.000000 0.000000
      CHANNELS 3 Zrotation Xrotation Yrotation
      JOINT Spine2
      {
        OFFSET 0.000000 15.000000 0.000000
        CHANNELS 3 Zrotation Xrotation Yrotation
        JOINT Neck
        {
          OFFSET 0.000000 12.000000 0.000000
          CHANNELS 3 Zrotation Xrotation Yrotation
          JOINT Head
          {
            OFFSET 0.000000 8.000000 0.000000
            CHANNELS 3 Zrotation Xrotation Yrotation
            End Site
            {
              OFFSET 0.0 0.0 5.0
            }
          }
        }
        JOINT LeftShoulder
        {
          OFFSET -8.000000 5.000000 0.000000
          CHANNELS 3 Zrotation Xrotation Yrotation
          JOINT LeftArm
          {
            OFFSET -18.000000 0.000000 0.000000
            CHANNELS 3 Zrotation Xrotation Yrotation
            JOINT LeftForeArm
            {
              OFFSET -25.000000 0.000000 0.000000
              CHANNELS 3 Zrotation Xrotation Yrotation
              JOINT LeftHand
              {
                OFFSET -18.000000 0.000000 0.000000
                CHANNELS 3 Zrotation Xrotation Yrotation
                End Site
                {
                  OFFSET 0.0 0.0 5.0
                }
              }
            }
          }
        }
        JOINT RightShoulder
        {
          OFFSET 8.000000 5.000000 0.000000
          CHANNELS 3 Zrotation Xrotation Yrotation
          JOINT RightArm
          {
            OFFSET 18.000000 0.000000 0.000000
            CHANNELS 3 Zrotation Xrotation Yrotation
            JOINT RightForeArm
            {
              OFFSET 25.000000 0.000000 0.000000
              CHANNELS 3 Zrotation Xrotation Yrotation
              JOINT RightHand
              {
                OFFSET 18.000000 0.000000 0.000000
                CHANNELS 3 Zrotation Xrotation Yrotation
                End Site
                {
                  OFFSET 0.0 0.0 5.0
                }
              }
            }
          }
        }
      }
    }
  }
  JOINT LeftUpLeg
  {
    OFFSET -5.000000 0.000000 0.000000
    CHANNELS 3 Zrotation Xrotation Yrotation
    JOINT LeftLeg
    {
      OFFSET 0.000000 -40.000000 0.000000
      CHANNELS 3 Zrotation Xrotation Yrotation
      JOINT LeftFoot
      {
        OFFSET 0.000000 -40.000000 0.000000
        CHANNELS 3 Zrotation Xrotation Yrotation
        JOINT LeftToeBase
        {
          OFFSET 0.000000 0.000000 15.000000
          CHANNELS 3 Zrotation Xrotation Yrotation
          End Site
          {
            OFFSET 0.0 0.0 5.0
          }
        }
      }
    }
  }
  JOINT RightUpLeg
  {
    OFFSET 5.000000 0.000000 0.000000
    CHANNELS 3 Zrotation Xrotation Yrotation
    JOINT RightLeg
    {
      OFFSET 0.000000 -40.000000 0.000000
      CHANNELS 3 Zrotation Xrotation Yrotation
      JOINT RightFoot
      {
        OFFSET 0.000000 -40.000000 0.000000
        CHANNELS 3 Zrotation Xrotation Yrotation
        JOINT RightToeBase
        {
          OFFSET 0.000000 0.000000 15.000000
          CHANNELS 3 Zrotation Xrotation Yrotation
          End Site
          {
            OFFSET 0.0 0.0 5.0
          }
        }
      }
    }
  }
}
MOTION
Frames: 7
Frame Time: 0.033333
28.431338 105.814362 -1.509073 0.000000 0.000000 0.000000 0.252736 -1.377129 -30.552887 8.619130 14.654925 -9.452950 12.847395 -23.296278 -17.356136 26.520108 -2.053358 -28.417644 26.520108 -2.053358 -28.417644 3.447919 3.692417 -11.855549 10.157001 -9.014427 -21.566320 12.312962 -0.286493 -29.336591 12.312962 -0.286493 -29.336591 -19.931813 -1.906704 -21.447699 -0.001602 5.128861 -20.207726 5.268895 -4.624744 -31.946588 -14.054247 5.556254 45.759402 42.966589 122.895075 41.331793 60.426171 106.935361 74.987841 -29.914856 -1.930930 -2.658115 -20.108965 117.572035 30.180468 -19.661227 140.948221 23.374723 26.524630 7.003519 -35.687274 33.946962 -17.511533 -28.957966 0.000000 0.000000 0.000000
31.139448 106.788957 -3.278781 0.000000 0.000000 0.000000 5.075850 -2.571060 -26.902802 9.095345 13.849138 -11.884699 11.758700 -20.488095 -26.607448 21.085381 -1.152112 -39.872237 21.085381 -1.152112 -39.872237 5.192755 3.146228 -12.881441 10.122679 -8.356318 -26.987363 10.844072 0.997873 -37.400989 10.844072 0.997873 -37.400989 -16.374779 -3.109357 -26.134646 3.136444 4.108828 -28.104872 3.319018 -7.832406 -44.398511 -21.634419 -18.535586 5.367048 -3.543698 116.333667 26.371770 36.429593 110.296278 74.634577 -27.210393 1.938800 1.297790 -15.663254 116.767671 28.781823 -12.751974 136.895692 27.517237 20.340689 12.556463 -34.454586 32.015866 -29.400816 -24.625733 0.000000 0.000000 0.000000
29.783937 106.812370 0.078909 0.000000 0.000000 0.000000 4.567433 -5.141051 -31.507410 7.184267 10.233502 -17.453179 12.807657 -22.327934 -31.011176 12.604216 -3.100580 -40.882463 12.604216 -3.100580 -40.882463 2.210100 0.126062 -18.564398 11.022598 -7.418279 -31.608483 11.304642 1.165888 -42.146341 11.304642 1.165888 -42.146341 -13.391839 5.243143 -28.105292 5.237600 14.898265 -26.891669 7.929175 -5.061027 -42.487021 16.741444 -0.618304 -52.129865 -42.151409 106.039861 -48.974997 -8.510402 123.705176 20.113688 -24.590142 8.596514 3.969280 -12.054259 121.317547 27.874342 -3.297543 137.182847 24.098903 24.553878 6.583095 -18.924697 29.660147 -29.947900 -10.152185 0.000000 0.000000 0.000000
29.527768 106.822944 0.607682 0.000000 0.000000 0.000000 4.671650 -7.280668 -33.301158 6.953866 9.976805 -20.238925 13.001579 -22.970123 -32.171680 8.273307 -4.606214 -39.856264 8.273307 -4.606214 -39.856264 1.703592 -0.292450 -20.277718 10.690224 -6.986437 -31.504306 10.227494 1.025303 -41.370145 10.227494 1.025303 -41.370145 -10.179948 7.209307 -27.802614 8.176876 17.777552 -27.420372 7.646364 -3.926199 -40.864786 21.835674 4.839797 -57.189177 -42.833544 106.062442 -58.656141 -9.145930 122.400173 17.433751 -21.807005 9.780205 6.337383 -7.993229 122.069223 26.551261 -11.443799 137.755627 31.973905 22.260068 3.141229 -16.505661 26.756832 -33.460287 -8.635336 0.000000 0.000000 0.000000
29.606864 106.754017 0.407373 0.000000 0.000000 0.000000 4.854023 -7.266152 -33.079245 6.877706 10.316819 -20.507839 13.231447 -22.899684 -32.478830 7.623652 -4.949268 -39.992475 7.623652 -4.949268 -39.992475 1.679691 0.069243 -20.529361 10.990076 -7.062040 -31.774334 10.544291 0.852957 -41.918879 10.544291 0.852957 -41.918879 -9.943624 7.137104 -28.188496 8.320690 17.708392 -28.032119 7.625063 -3.917652 -41.125873 21.719800 4.616241 -57.807094 -43.543522 105.705469 -58.862126 -9.166418 121.103120 18.384952 -20.910795 9.604263 6.714878 -7.083060 121.646816 25.817693 -9.911540 136.661089 31.863591 21.941110 2.960469 -16.075407 26.310003 -33.613106 -8.339365 0.000000 0.000000 0.000000
29.451224 106.837392 0.634388 0.000000 0.000000 0.000000 5.445989 -7.612832 -32.909378 6.481057 9.944958 -21.124348 13.227782 -22.673122 -32.936695 6.408870 -5.330320 -39.833137 6.408870 -5.330320 -39.833137 1.402012 -0.246108 -20.547810 10.895940 -7.052920 -31.150878 10.304633 1.013040 -41.281052 10.304633 1.013040 -41.281052 -8.889625 7.359906 -28.336744 9.397631 18.197758 -28.552501 7.490156 -3.308305 -41.309794 21.330582 4.206572 -58.258986 -44.143226 105.144355 -58.694281 -8.479434 118.876191 20.163678 -20.535954 9.716253 6.617101 -6.918680 121.901801 25.393310 -9.612770 136.096888 32.877020 20.740298 2.080663 -16.288816 25.248170 -34.553224 -8.937755 0.000000 0.000000 0.000000
29.443377 106.910813 0.619058 0.000000 0.000000 0.000000 5.299255 -7.969563 -33.334964 6.510675 9.884536 -21.944286 13.283595 -22.898944 -33.513658 5.410170 -5.595184 -40.047694 5.410170 -5.595184 -40.047694 1.430106 -0.339951 -21.152514 10.976892 -6.784154 -31.545239 10.267037 1.191810 -41.708243 10.267037 1.191810 -41.708243 -8.020106 7.829828 -27.929981 10.278983 18.586118 -28.196908 7.408275 -2.916657 -40.797898 21.610403 4.813915 -57.808317 -43.243359 105.378050 -58.920128 -6.955328 118.000028 20.183163 -19.705360 9.439664 6.604044 -6.548812 120.847725 24.391551 -9.037101 133.345305 31.378985 20.110847 1.027086 -15.791073 24.503205 -35.619686 -8.677670 0.000000 0.000000 0.000000
